<svg width="16" height="21" viewBox="0 0 16 21" fill="none"
  xmlns="http://www.w3.org/2000/svg">
  <path d="M10.9154 13.8021H8.41536V16.3021H7.58203V13.8021H5.08203V12.9687H7.58203V10.4688H8.41536V12.9687H10.9154V13.8021Z" fill="white"/>
  <path d="M14 4.68555H12C12 2.47555 10.21 0.685547 8 0.685547C5.79 0.685547 4 2.47555 4 4.68555H2C0.9 4.68555 0 5.58555 0 6.68555V18.6855C0 19.7855 0.9 20.6855 2 20.6855H14C15.1 20.6855 16 19.7855 16 18.6855V6.68555C16 5.58555 15.1 4.68555 14 4.68555ZM8 2.68555C9.1 2.68555 10 3.58555 10 4.68555H6C6 3.58555 6.9 2.68555 8 2.68555ZM14 18.6855H2V6.68555H4V8.68555C4 9.23555 4.45 9.68555 5 9.68555C5.55 9.68555 6 9.23555 6 8.68555V6.68555H10V8.68555C10 9.23555 10.45 9.68555 11 9.68555C11.55 9.68555 12 9.23555 12 8.68555V6.68555H14V18.6855Z" fill="white"/>
</svg>
