<svg width="20" height="21" viewBox="0 0 20 21" fill="none"
  xmlns="http://www.w3.org/2000/svg">
  <path d="M14 13.7167C14.6186 13.7167 15.12 13.2152 15.12 12.5967C15.12 11.9781 14.6186 11.4767 14 11.4767C13.3814 11.4767 12.88 11.9781 12.88 12.5967C12.88 13.2152 13.3814 13.7167 14 13.7167Z" fill="white"/>
  <path fill-rule="evenodd" clip-rule="evenodd" d="M14 14.5967C13.27 14.5967 11.81 14.9567 11.76 15.6767C12.26 16.3867 13.08 16.8467 14 16.8467C14.92 16.8467 15.74 16.3867 16.24 15.6767C16.19 14.9567 14.73 14.5967 14 14.5967Z" fill="white"/>
  <path fill-rule="evenodd" clip-rule="evenodd" d="M15 8.18668V3.36668L7.5 0.0966797L0 3.36668V8.27668C0 12.8167 3.2 17.0667 7.5 18.0967C8.05 17.9667 8.58 17.7767 9.1 17.5467C10.18 19.0867 11.97 20.0967 14 20.0967C17.31 20.0967 20 17.4067 20 14.0967C20 11.1267 17.84 8.66668 15 8.18668ZM8 14.0967C8 14.6567 8.08 15.2067 8.23 15.7167C7.99 15.8267 7.75 15.9367 7.5 16.0167C4.33 15.0167 2 11.7767 2 8.27668V4.67668L7.5 2.27668L13 4.67668V8.18668C10.16 8.66668 8 11.1267 8 14.0967ZM14 18.0967C11.79 18.0967 10 16.3067 10 14.0967C10 11.8867 11.79 10.0967 14 10.0967C16.21 10.0967 18 11.8867 18 14.0967C18 16.3067 16.21 18.0967 14 18.0967Z" fill="white"/>
</svg>
