<svg width="24" height="25" viewBox="0 0 24 25" fill="none"
  xmlns="http://www.w3.org/2000/svg">
  <path d="M19.1039 11.2796L20.1639 10.2196C20.9439 9.43965 20.9439 8.16965 20.1639 7.38965L18.7539 5.97965C17.9739 5.19965 16.7039 5.19965 15.9239 5.97965L14.8639 7.03965L19.1039 11.2796ZM14.8639 12.6996L7.66391 19.8896H6.25391V18.4796L13.4439 11.2896L14.8639 12.6996ZM13.4439 8.44965L4.25391 17.6496V21.8896H8.49391L17.6839 12.6996L13.4439 8.44965ZM19.2539 18.3896C19.2539 20.5796 16.7139 21.8896 14.2539 21.8896C13.7039 21.8896 13.2539 21.4396 13.2539 20.8896C13.2539 20.3396 13.7039 19.8896 14.2539 19.8896C15.7939 19.8896 17.2539 19.1596 17.2539 18.3896C17.2539 17.9196 16.7739 17.5196 16.0239 17.1896L17.5039 15.7096C18.5739 16.3396 19.2539 17.1796 19.2539 18.3896ZM4.83391 14.2396C3.86391 13.6796 3.25391 12.9496 3.25391 11.8896C3.25391 10.0896 5.14391 9.25965 6.81391 8.52965C7.84391 8.06965 9.25391 7.44965 9.25391 6.88965C9.25391 6.47965 8.47391 5.88965 7.25391 5.88965C5.99391 5.88965 5.45391 6.49965 5.42391 6.52965C5.07391 6.93965 4.44391 6.98965 4.02391 6.64965C3.61391 6.30965 3.53391 5.69965 3.87391 5.26965C3.98391 5.12965 5.01391 3.88965 7.25391 3.88965C9.49391 3.88965 11.2539 5.20965 11.2539 6.88965C11.2539 8.75965 9.32391 9.60965 7.61391 10.3596C6.67391 10.7696 5.25391 11.3896 5.25391 11.8896C5.25391 12.1996 5.68391 12.4896 6.32391 12.7496L4.83391 14.2396Z" fill="white"/>
</svg>
