<svg width="24" height="13" viewBox="0 0 24 13" fill="none"
  xmlns="http://www.w3.org/2000/svg">
  <path d="M4 7.24414C5.1 7.24414 6 6.34414 6 5.24414C6 4.14414 5.1 3.24414 4 3.24414C2.9 3.24414 2 4.14414 2 5.24414C2 6.34414 2.9 7.24414 4 7.24414ZM5.13 8.34414C4.76 8.28414 4.39 8.24414 4 8.24414C3.01 8.24414 2.07 8.45414 1.22 8.82414C0.48 9.14414 0 9.86414 0 10.6741V12.2441H4.5V10.6341C4.5 9.80414 4.73 9.02414 5.13 8.34414ZM20 7.24414C21.1 7.24414 22 6.34414 22 5.24414C22 4.14414 21.1 3.24414 20 3.24414C18.9 3.24414 18 4.14414 18 5.24414C18 6.34414 18.9 7.24414 20 7.24414ZM24 10.6741C24 9.86414 23.52 9.14414 22.78 8.82414C21.93 8.45414 20.99 8.24414 20 8.24414C19.61 8.24414 19.24 8.28414 18.87 8.34414C19.27 9.02414 19.5 9.80414 19.5 10.6341V12.2441H24V10.6741ZM16.24 7.89414C15.07 7.37414 13.63 6.99414 12 6.99414C10.37 6.99414 8.93 7.38414 7.76 7.89414C6.68 8.37414 6 9.45414 6 10.6341V12.2441H18V10.6341C18 9.45414 17.32 8.37414 16.24 7.89414ZM8.07 10.2441C8.16 10.0141 8.2 9.85414 8.98 9.55414C9.95 9.17414 10.97 8.99414 12 8.99414C13.03 8.99414 14.05 9.17414 15.02 9.55414C15.79 9.85414 15.83 10.0141 15.93 10.2441H8.07ZM12 2.24414C12.55 2.24414 13 2.69414 13 3.24414C13 3.79414 12.55 4.24414 12 4.24414C11.45 4.24414 11 3.79414 11 3.24414C11 2.69414 11.45 2.24414 12 2.24414ZM12 0.244141C10.34 0.244141 9 1.58414 9 3.24414C9 4.90414 10.34 6.24414 12 6.24414C13.66 6.24414 15 4.90414 15 3.24414C15 1.58414 13.66 0.244141 12 0.244141Z" fill="white"/>
</svg>
