<svg width="18" height="17" viewBox="0 0 18 17" fill="none"
  xmlns="http://www.w3.org/2000/svg">
  <path d="M7.66207 3.69394C8.42268 3.00939 9.57732 3.00939 10.3379 3.69394L13.3379 6.39394C13.7594 6.77322 14 7.31356 14 7.88053V13.7998C14 14.3521 13.5523 14.7998 13 14.7998C12.4477 14.7998 12 14.3521 12 13.7998V10.7998C12 9.69524 11.1046 8.7998 10 8.7998H8C6.89543 8.7998 6 9.69524 6 10.7998V13.7998C6 14.3521 5.55228 14.7998 5 14.7998C4.44772 14.7998 4 14.3521 4 13.7998V7.88053C4 7.31356 4.24064 6.77323 4.66207 6.39394L7.66207 3.69394ZM10.3379 1.00394C9.57732 0.319393 8.42268 0.319392 7.66207 1.00394L0.611495 7.34946C0.0447519 7.85953 0.405569 8.7998 1.16804 8.7998C1.62752 8.7998 2 9.17228 2 9.63176V14.7998C2 15.9044 2.89543 16.7998 4 16.7998H6C7.10457 16.7998 8 15.9044 8 14.7998V11.7998C8 11.2475 8.44771 10.7998 9 10.7998C9.55229 10.7998 10 11.2475 10 11.7998V14.7998C10 15.9044 10.8954 16.7998 12 16.7998H14C15.1046 16.7998 16 15.9044 16 14.7998V9.63176C16 9.17228 16.3725 8.7998 16.832 8.7998C17.5944 8.7998 17.9552 7.85953 17.3885 7.34946L10.3379 1.00394Z" fill="white"/>
</svg>
