<svg width="14" height="19" viewBox="0 0 14 19" fill="none"
  xmlns="http://www.w3.org/2000/svg">
  <path d="M7 0.751953C3.13 0.751953 0 3.88195 0 7.75195C0 13.002 7 20.752 7 20.752C7 20.752 14 13.002 14 7.75195C14 3.88195 10.87 0.751953 7 0.751953ZM2 7.75195C2 4.99195 4.24 2.75195 7 2.75195C9.76 2.75195 12 4.99195 12 7.75195C12 10.632 9.12 14.942 7 17.632C4.92 14.962 2 10.602 2 7.75195Z" fill="white"/>
  <path d="M7 10.252C8.38071 10.252 9.5 9.13267 9.5 7.75195C9.5 6.37124 8.38071 5.25195 7 5.25195C5.61929 5.25195 4.5 6.37124 4.5 7.75195C4.5 9.13267 5.61929 10.252 7 10.252Z" fill="white"/>
</svg>
