<svg width="20" height="19" viewBox="0 0 20 19" fill="none"
  xmlns="http://www.w3.org/2000/svg">
  <path d="M8 8.33008C10.21 8.33008 12 6.54008 12 4.33008C12 2.12008 10.21 0.330078 8 0.330078C5.79 0.330078 4 2.12008 4 4.33008C4 6.54008 5.79 8.33008 8 8.33008ZM8 2.33008C9.1 2.33008 10 3.23008 10 4.33008C10 5.43008 9.1 6.33008 8 6.33008C6.9 6.33008 6 5.43008 6 4.33008C6 3.23008 6.9 2.33008 8 2.33008Z" fill="white"/>
  <path d="M2 14.3301C2.22 13.6101 5.31 12.3301 8 12.3301C8 11.6301 8.13 10.9601 8.35 10.3401C5.62 10.2401 0 11.6001 0 14.3301V16.3301H9.54C9.02 15.7501 8.61 15.0801 8.35 14.3301H2Z" fill="white"/>
  <path d="M17.43 14.3501C17.79 13.7601 18 13.0701 18 12.3301C18 10.1201 16.21 8.33008 14 8.33008C11.79 8.33008 10 10.1201 10 12.3301C10 14.5401 11.79 16.3301 14 16.3301C14.74 16.3301 15.43 16.1101 16.02 15.7601C16.95 16.6901 17.64 17.3801 18.59 18.3301L20 16.9201C18.5 15.4201 19.21 16.1201 17.43 14.3501ZM14 14.3301C12.9 14.3301 12 13.4301 12 12.3301C12 11.2301 12.9 10.3301 14 10.3301C15.1 10.3301 16 11.2301 16 12.3301C16 13.4301 15.1 14.3301 14 14.3301Z" fill="white"/>
</svg>
