<svg width="20" height="20" viewBox="0 0 20 20" fill="none"
  xmlns="http://www.w3.org/2000/svg">
  <path d="M14.5 17.6956H2.5V5.47559H9.5V3.47559H2.5C1.4 3.47559 0.5 4.37559 0.5 5.47559V17.4756C0.5 18.5756 1.4 19.4756 2.5 19.4756H14.5C15.6 19.4756 16.5 18.5756 16.5 17.4756V10.4756H14.5V17.6956Z" fill="white"/>
  <path d="M16.5 0.475586H14.5V3.47559H11.5C11.51 3.48559 11.5 5.47559 11.5 5.47559H14.5V8.46559C14.51 8.47559 16.5 8.46559 16.5 8.46559V5.47559H19.5V3.47559H16.5V0.475586Z" fill="white"/>
  <path d="M12.5 7.47559H4.5V9.47559H12.5V7.47559Z" fill="white"/>
  <path d="M4.5 10.4756V12.4756H12.5V10.4756H4.5Z" fill="white"/>
  <path d="M12.5 13.4756H4.5V15.4756H12.5V13.4756Z" fill="white"/>
</svg>
