<svg width="18" height="25" viewBox="0 0 18 25" fill="none"
  xmlns="http://www.w3.org/2000/svg">
  <path d="M17.5 4.66504C14.89 5.36504 11.83 5.66504 9 5.66504C6.17 5.66504 3.11 5.36504 0.5 4.66504L0 6.66504C1.86 7.16504 4 7.49504 6 7.66504V19.665H8V13.665H10V19.665H12V7.66504C14 7.49504 16.14 7.16504 18 6.66504L17.5 4.66504ZM9 4.66504C10.1 4.66504 11 3.76504 11 2.66504C11 1.56504 10.1 0.665039 9 0.665039C7.9 0.665039 7 1.56504 7 2.66504C7 3.76504 7.9 4.66504 9 4.66504ZM4 24.665H6V22.665H4V24.665ZM8 24.665H10V22.665H8V24.665ZM12 24.665H14V22.665H12V24.665Z" fill="white"/>
</svg>
