<svg width="20" height="21" viewBox="0 0 20 21" fill="none"
  xmlns="http://www.w3.org/2000/svg">
  <path d="M14.5461 11.4932C15.2961 11.4932 15.9561 11.0832 16.2961 10.4632L19.8761 3.97316C20.2461 3.31316 19.7661 2.49316 19.0061 2.49316H4.20609L3.26609 0.493164H-0.00390625V2.49316H1.99609L5.59609 10.0832L4.24609 12.5232C3.51609 13.8632 4.47609 15.4932 5.99609 15.4932H17.9961V13.4932H5.99609L7.09609 11.4932H14.5461ZM5.15609 4.49316H17.3061L14.5461 9.49316H7.52609L5.15609 4.49316ZM5.99609 16.4932C4.89609 16.4932 4.00609 17.3932 4.00609 18.4932C4.00609 19.5932 4.89609 20.4932 5.99609 20.4932C7.09609 20.4932 7.99609 19.5932 7.99609 18.4932C7.99609 17.3932 7.09609 16.4932 5.99609 16.4932ZM15.9961 16.4932C14.8961 16.4932 14.0061 17.3932 14.0061 18.4932C14.0061 19.5932 14.8961 20.4932 15.9961 20.4932C17.0961 20.4932 17.9961 19.5932 17.9961 18.4932C17.9961 17.3932 17.0961 16.4932 15.9961 16.4932Z" fill="white"/>
</svg>
