<svg width="24" height="25" viewBox="0 0 24 25" fill="none"
  xmlns="http://www.w3.org/2000/svg">
  <path d="M18 6.59961H16C16 4.38961 14.21 2.59961 12 2.59961C9.79 2.59961 8 4.38961 8 6.59961H6C4.9 6.59961 4 7.49961 4 8.59961V20.5996C4 21.6996 4.9 22.5996 6 22.5996H18C19.1 22.5996 20 21.6996 20 20.5996V8.59961C20 7.49961 19.1 6.59961 18 6.59961ZM12 4.59961C13.1 4.59961 14 5.49961 14 6.59961H10C10 5.49961 10.9 4.59961 12 4.59961ZM18 20.5996H6V8.59961H8V10.5996C8 11.1496 8.45 11.5996 9 11.5996C9.55 11.5996 10 11.1496 10 10.5996V8.59961H14V10.5996C14 11.1496 14.45 11.5996 15 11.5996C15.55 11.5996 16 11.1496 16 10.5996V8.59961H18V20.5996Z" fill="white"/>
</svg>
