<svg xmlns="http://www.w3.org/2000/svg" width="28" height="29" viewBox="0 0 28 29" fill="none" id="ic-instagram">
  <path d="M13.9556 0.75C10.1655 0.75 9.6902 0.76613 8.20168 0.834235C6.71628 0.902215 5.70181 1.13891 4.81411 1.48494C3.89641 1.84272 3.11814 2.32145 2.34232 3.09974C1.56646 3.87803 1.08925 4.65886 0.732648 5.57948C0.387638 6.46997 0.151773 7.48767 0.0839259 8.9778C0.0160373 10.4711 0 10.9478 0 14.75C0 18.5522 0.0160373 19.0289 0.0839259 20.5222C0.151773 22.0123 0.387638 23.03 0.732648 23.9205C1.08929 24.8411 1.56651 25.6219 2.34232 26.4003C3.11818 27.1785 3.89641 27.6573 4.81411 28.0151C5.70181 28.3611 6.71628 28.5977 8.20168 28.6658C9.6902 28.7339 10.1655 28.75 13.9556 28.75C17.7456 28.75 18.2209 28.7339 19.7094 28.6658C21.1948 28.5978 22.2093 28.3611 23.097 28.0151C24.0147 27.6573 24.7929 27.1785 25.5688 26.4003C26.3446 25.6219 26.8219 24.8411 27.1785 23.9205C27.5234 23.03 27.7594 22.0123 27.8271 20.5222C27.895 19.0289 27.9111 18.5522 27.9111 14.75C27.9111 10.9478 27.895 10.4711 27.8271 8.9778C27.7594 7.48767 27.5234 6.46997 27.1785 5.57948C26.8219 4.65886 26.3446 3.87803 25.5688 3.09974C24.7929 2.32145 24.0147 1.84272 23.097 1.48494C22.2093 1.13891 21.1948 0.902215 19.7094 0.834235C18.2209 0.76613 17.7456 0.75 13.9556 0.75ZM13.9556 3.2725C17.6818 3.2725 18.1232 3.2868 19.5948 3.35415C20.9555 3.41638 21.6944 3.64445 22.1861 3.83618C22.8376 4.09018 23.3025 4.39352 23.7908 4.88343C24.2792 5.37333 24.5815 5.83973 24.8347 6.49319C25.0258 6.98651 25.2532 7.72783 25.3152 9.0928C25.3824 10.5691 25.3966 11.0119 25.3966 14.75C25.3966 18.4881 25.3824 18.9309 25.3152 20.4072C25.2532 21.7722 25.0258 22.5135 24.8347 23.0068C24.5815 23.6603 24.2792 24.1267 23.7908 24.6165C23.3025 25.1065 22.8375 25.4098 22.1862 25.6638C21.6944 25.8555 20.9554 26.0836 19.5948 26.1458C18.1235 26.2132 17.6821 26.2275 13.9556 26.2275C10.229 26.2275 9.78772 26.2132 8.31631 26.1458C6.95563 26.0836 6.21671 25.8555 5.725 25.6638C5.07353 25.4098 4.60866 25.1065 4.12035 24.6165C3.632 24.1267 3.32957 23.6603 3.07638 23.0068C2.88527 22.5135 2.65796 21.7722 2.59589 20.4072C2.52875 18.9309 2.5145 18.4881 2.5145 14.75C2.5145 11.0119 2.52875 10.5691 2.59589 9.0928C2.65796 7.72778 2.88527 6.98651 3.07638 6.49323C3.32957 5.83969 3.632 5.37333 4.12031 4.88347C4.60866 4.39352 5.07357 4.09018 5.72495 3.83618C6.21671 3.64445 6.95567 3.41638 8.31631 3.35415C9.78788 3.2868 10.2293 3.2725 13.9556 3.2725Z" fill="#292929"/>
  <path d="M13.9556 19.4167C11.3864 19.4167 9.30368 17.3273 9.30368 14.75C9.30368 12.1726 11.3864 10.0833 13.9556 10.0833C16.5247 10.0833 18.6074 12.1726 18.6074 14.75C18.6074 17.3273 16.5247 19.4167 13.9556 19.4167ZM13.9556 7.56081C9.99765 7.56081 6.78919 10.7795 6.78919 14.75C6.78919 18.7205 9.99765 21.9392 13.9556 21.9392C17.9134 21.9392 21.1219 18.7205 21.1219 14.75C21.1219 10.7795 17.9134 7.56081 13.9556 7.56081ZM23.0798 7.27676C23.0798 8.20464 22.3299 8.95675 21.4051 8.95675C20.4802 8.95675 19.7304 8.20464 19.7304 7.27676C19.7304 6.34893 20.4802 5.59673 21.4051 5.59673C22.3299 5.59673 23.0798 6.34893 23.0798 7.27676Z" fill="#292929"/>
</svg>