<svg width="28" height="28" viewBox="0 0 28 28" fill="none" id="ic-browser"
  xmlns="http://www.w3.org/2000/svg">
  <path d="M13.9867 0.666504C6.62669 0.666504 0.666687 6.63984 0.666687 13.9998C0.666687 21.3598 6.62669 27.3332 13.9867 27.3332C21.36 27.3332 27.3334 21.3598 27.3334 13.9998C27.3334 6.63984 21.36 0.666504 13.9867 0.666504ZM23.2267 8.6665H19.2934C18.8667 6.99984 18.2534 5.39984 17.4534 3.91984C19.9067 4.75984 21.9467 6.4665 23.2267 8.6665ZM14 3.3865C15.1067 4.9865 15.9734 6.75984 16.5467 8.6665H11.4534C12.0267 6.75984 12.8934 4.9865 14 3.3865ZM3.68002 16.6665C3.46669 15.8132 3.33335 14.9198 3.33335 13.9998C3.33335 13.0798 3.46669 12.1865 3.68002 11.3332H8.18669C8.08002 12.2132 8.00002 13.0932 8.00002 13.9998C8.00002 14.9065 8.08002 15.7865 8.18669 16.6665H3.68002ZM4.77335 19.3332H8.70669C9.13335 20.9998 9.74669 22.5998 10.5467 24.0798C8.09335 23.2398 6.05335 21.5465 4.77335 19.3332ZM8.70669 8.6665H4.77335C6.05335 6.45317 8.09335 4.75984 10.5467 3.91984C9.74669 5.39984 9.13335 6.99984 8.70669 8.6665ZM14 24.6132C12.8934 23.0132 12.0267 21.2398 11.4534 19.3332H16.5467C15.9734 21.2398 15.1067 23.0132 14 24.6132ZM17.12 16.6665H10.88C10.76 15.7865 10.6667 14.9065 10.6667 13.9998C10.6667 13.0932 10.76 12.1998 10.88 11.3332H17.12C17.24 12.1998 17.3334 13.0932 17.3334 13.9998C17.3334 14.9065 17.24 15.7865 17.12 16.6665ZM17.4534 24.0798C18.2534 22.5998 18.8667 20.9998 19.2934 19.3332H23.2267C21.9467 21.5332 19.9067 23.2398 17.4534 24.0798ZM19.8134 16.6665C19.92 15.7865 20 14.9065 20 13.9998C20 13.0932 19.92 12.2132 19.8134 11.3332H24.32C24.5334 12.1865 24.6667 13.0798 24.6667 13.9998C24.6667 14.9198 24.5334 15.8132 24.32 16.6665H19.8134Z" fill="#292929"/>
</svg>
