<svg xmlns="http://www.w3.org/2000/svg" width="32" height="33" viewBox="0 0 32 33" fill="#F26A2A" id="icon">
  <path d="M15.987 3.4165C8.62699 3.4165 2.66699 9.38984 2.66699 16.7498C2.66699 24.1098 8.62699 30.0832 15.987 30.0832C23.3603 30.0832 29.3337 24.1098 29.3337 16.7498C29.3337 9.38984 23.3603 3.4165 15.987 3.4165ZM25.227 11.4165H21.2937C20.867 9.74984 20.2537 8.14984 19.4537 6.66984C21.907 7.50984 23.947 9.2165 25.227 11.4165ZM16.0003 6.1365C17.107 7.7365 17.9737 9.50984 18.547 11.4165H13.4537C14.027 9.50984 14.8937 7.7365 16.0003 6.1365ZM5.68033 19.4165C5.46699 18.5632 5.33366 17.6698 5.33366 16.7498C5.33366 15.8298 5.46699 14.9365 5.68033 14.0832H10.187C10.0803 14.9632 10.0003 15.8432 10.0003 16.7498C10.0003 17.6565 10.0803 18.5365 10.187 19.4165H5.68033ZM6.77366 22.0832H10.707C11.1337 23.7498 11.747 25.3498 12.547 26.8298C10.0937 25.9898 8.05366 24.2965 6.77366 22.0832ZM10.707 11.4165H6.77366C8.05366 9.20317 10.0937 7.50984 12.547 6.66984C11.747 8.14984 11.1337 9.74984 10.707 11.4165ZM16.0003 27.3632C14.8937 25.7632 14.027 23.9898 13.4537 22.0832H18.547C17.9737 23.9898 17.107 25.7632 16.0003 27.3632ZM19.1203 19.4165H12.8803C12.7603 18.5365 12.667 17.6565 12.667 16.7498C12.667 15.8432 12.7603 14.9498 12.8803 14.0832H19.1203C19.2403 14.9498 19.3337 15.8432 19.3337 16.7498C19.3337 17.6565 19.2403 18.5365 19.1203 19.4165ZM19.4537 26.8298C20.2537 25.3498 20.867 23.7498 21.2937 22.0832H25.227C23.947 24.2832 21.907 25.9898 19.4537 26.8298ZM21.8137 19.4165C21.9203 18.5365 22.0003 17.6565 22.0003 16.7498C22.0003 15.8432 21.9203 14.9632 21.8137 14.0832H26.3203C26.5337 14.9365 26.667 15.8298 26.667 16.7498C26.667 17.6698 26.5337 18.5632 26.3203 19.4165H21.8137Z"/>
</svg>
