<svg xmlns="http://www.w3.org/2000/svg" width="29" height="29" viewBox="0 0 29 29" fill="none" id="ic-linkedin">
  <path d="M7.38993 9.74672H1.80242C1.55443 9.74672 1.3535 9.9494 1.3535 10.1993V28.2973C1.3535 28.5473 1.55443 28.7499 1.80242 28.7499H7.38993C7.63791 28.7499 7.83885 28.5473 7.83885 28.2973V10.1993C7.83885 9.9494 7.63791 9.74672 7.38993 9.74672Z" fill="#292929"/>
  <path d="M4.59819 0.75C2.56513 0.75 0.911133 2.41579 0.911133 4.46332C0.911133 6.51175 2.56513 8.17817 4.59819 8.17817C6.62964 8.17817 8.28229 6.51166 8.28229 4.46332C8.28238 2.41579 6.62964 0.75 4.59819 0.75Z" fill="#292929"/>
  <path d="M21.6022 9.29693C19.358 9.29693 17.6991 10.2696 16.6929 11.3748V10.1993C16.6929 9.94941 16.4919 9.74673 16.2439 9.74673H10.8929C10.6449 9.74673 10.444 9.94941 10.444 10.1993V28.2973C10.444 28.5473 10.6449 28.7499 10.8929 28.7499H16.4682C16.7162 28.7499 16.9171 28.5473 16.9171 28.2973V19.343C16.9171 16.3256 17.7301 15.1501 19.8163 15.1501C22.0883 15.1501 22.2689 17.0346 22.2689 19.4983V28.2974C22.2689 28.5474 22.4698 28.75 22.7178 28.75H28.2952C28.5432 28.75 28.7441 28.5474 28.7441 28.2974V18.3703C28.7441 13.8836 27.8955 9.29693 21.6022 9.29693Z" fill="#292929"/>
</svg>