<svg xmlns="http://www.w3.org/2000/svg" width="36" height="36" viewBox="0 0 36 36" fill="none" id="ic-search">
  <path d="M23.6328 21.3823H22.4478L22.0278 20.9773C23.4978 19.2673 24.3828 17.0473 24.3828 14.6323C24.3828 9.24732 20.0178 4.88232 14.6328 4.88232C9.24781 4.88232 4.88281 9.24732 4.88281 14.6323C4.88281 20.0173 9.24781 24.3823 14.6328 24.3823C17.0478 24.3823 19.2678 23.4973 20.9778 22.0273L21.3828 22.4473V23.6323L28.8828 31.1173L31.1178 28.8823L23.6328 21.3823ZM14.6328 21.3823C10.8978 21.3823 7.88281 18.3673 7.88281 14.6323C7.88281 10.8973 10.8978 7.88232 14.6328 7.88232C18.3678 7.88232 21.3828 10.8973 21.3828 14.6323C21.3828 18.3673 18.3678 21.3823 14.6328 21.3823Z" fill="#292929"/>
</svg>