<svg xmlns="http://www.w3.org/2000/svg" width="26" height="29" viewBox="0 0 26 29" fill="none" id="ic-tiktok">
  <path d="M21.9899 6.7382C21.8009 6.64053 21.6169 6.53345 21.4387 6.41738C20.9203 6.07467 20.445 5.67084 20.023 5.21461C18.9672 4.00659 18.5729 2.78107 18.4277 1.92302H18.4335C18.3122 1.21081 18.3623 0.75 18.3699 0.75H13.5612V19.3446C13.5612 19.5942 13.5612 19.841 13.5507 20.0848C13.5507 20.1151 13.5477 20.1431 13.546 20.1758C13.546 20.1892 13.546 20.2032 13.5431 20.2172C13.5431 20.2207 13.5431 20.2242 13.5431 20.2277C13.4924 20.8949 13.2785 21.5394 12.9203 22.1045C12.562 22.6696 12.0704 23.138 11.4887 23.4685C10.8824 23.8135 10.1966 23.9944 9.49902 23.9935C7.25855 23.9935 5.44272 22.1666 5.44272 19.9104C5.44272 17.6542 7.25855 15.8272 9.49902 15.8272C9.92313 15.8269 10.3446 15.8936 10.7479 16.025L10.7537 11.1287C9.52956 10.9706 8.28593 11.0679 7.10127 11.4145C5.91661 11.761 4.81663 12.3493 3.87072 13.1423C3.04188 13.8624 2.34507 14.7217 1.81165 15.6814C1.60866 16.0314 0.842784 17.4377 0.750039 19.7202C0.691708 21.0157 1.08077 22.3579 1.26626 22.9126V22.9243C1.38292 23.251 1.83498 24.3657 2.5717 25.3054C3.16576 26.0591 3.86762 26.7213 4.65468 27.2705V27.2588L4.66634 27.2705C6.99431 28.8524 9.57543 28.7486 9.57543 28.7486C10.0222 28.7305 11.519 28.7486 13.2188 27.9431C15.104 27.05 16.1773 25.7195 16.1773 25.7195C16.8629 24.9245 17.4082 24.0185 17.7895 23.0404C18.2247 21.8965 18.3699 20.5246 18.3699 19.9763V10.1114C18.4282 10.1464 19.2052 10.6603 19.2052 10.6603C19.2052 10.6603 20.3246 11.3778 22.071 11.845C23.3239 12.1775 25.012 12.2475 25.012 12.2475V7.47375C24.4205 7.53791 23.2195 7.35125 21.9899 6.7382Z" fill="#292929"/>
</svg>