<svg xmlns="http://www.w3.org/2000/svg" width="28" height="29" viewBox="0 0 28 29" fill="none" id="icon">
  <path d="M23.8117 4.824C21.1937 2.192 17.7077 0.75 13.9977 0.75C6.35372 0.75 0.123719 6.98 0.123719 14.624C0.123719 17.074 0.767719 19.454 1.97172 21.554L0.0117188 28.75L7.36172 26.818C9.39172 27.924 11.6737 28.512 13.9977 28.512C21.6417 28.512 27.8717 22.282 27.8717 14.638C27.8717 10.928 26.4297 7.442 23.8117 4.824ZM13.9977 26.16C11.9257 26.16 9.89572 25.6 8.11772 24.55L7.69772 24.298L3.32972 25.446L4.49172 21.19L4.21172 20.756C3.06372 18.922 2.44772 16.794 2.44772 14.624C2.44772 8.268 7.62772 3.088 13.9837 3.088C17.0637 3.088 19.9617 4.292 22.1317 6.476C24.3157 8.66 25.5057 11.558 25.5057 14.638C25.5337 20.994 20.3537 26.16 13.9977 26.16ZM20.3257 17.536C19.9757 17.368 18.2677 16.528 17.9597 16.402C17.6377 16.29 17.4137 16.234 17.1757 16.57C16.9377 16.92 16.2797 17.704 16.0837 17.928C15.8877 18.166 15.6777 18.194 15.3277 18.012C14.9777 17.844 13.8577 17.466 12.5417 16.29C11.5057 15.366 10.8197 14.232 10.6097 13.882C10.4137 13.532 10.5817 13.35 10.7637 13.168C10.9177 13.014 11.1137 12.762 11.2817 12.566C11.4497 12.37 11.5197 12.216 11.6317 11.992C11.7437 11.754 11.6877 11.558 11.6037 11.39C11.5197 11.222 10.8197 9.514 10.5397 8.814C10.2597 8.142 9.96572 8.226 9.75572 8.212C9.54572 8.212 9.32172 8.212 9.08372 8.212C8.84572 8.212 8.48172 8.296 8.15972 8.646C7.85172 8.996 6.95572 9.836 6.95572 11.544C6.95572 13.252 8.20172 14.904 8.36972 15.128C8.53772 15.366 10.8197 18.866 14.2917 20.364C15.1177 20.728 15.7617 20.938 16.2657 21.092C17.0917 21.358 17.8477 21.316 18.4497 21.232C19.1217 21.134 20.5077 20.392 20.7877 19.58C21.0817 18.768 21.0817 18.082 20.9837 17.928C20.8857 17.774 20.6757 17.704 20.3257 17.536Z" fill="#292929"/>
</svg>