<svg width="25" height="24" viewBox="0 0 25 24" fill="none"
  xmlns="http://www.w3.org/2000/svg">
  <path d="M2.49299 0C2.10941 0 1.7083 0.128916 1.41556 0.421206C0.83023 1.00729 0.83023 1.99056 1.41556 2.57664L10.8307 11.9914L1.41556 21.4061C0.83023 21.9922 0.83023 22.9755 1.41556 23.5616C2.00104 24.1461 2.98493 24.1461 3.57041 23.5616L12.9855 14.1468L22.4005 23.5616C22.986 24.1461 23.9699 24.1461 24.5553 23.5616C25.1407 22.9755 25.1407 21.9922 24.5553 21.4061L15.1402 11.9914L24.5553 2.57664C25.1407 1.99056 25.1407 1.00729 24.5553 0.421206C24.2626 0.128916 23.8613 0 23.4779 0C23.0943 0 22.6934 0.128916 22.4005 0.421206L12.9855 9.83593L3.57041 0.421206C3.27767 0.128916 2.87656 0 2.49299 0Z" fill="black"/>
</svg>
